HIERARCHY
ROOT Hips
{
	OFFSET 0.000000 89.005402 0.000000
	CHANNELS 6 Xposition Yposition Zposition Xrotation Yrotation Zrotation
	JOINT Spine
	{
		OFFSET 0.116900 10.681000 0.373400
		CHANNELS 3 Xrotation Yrotation Zrotation
		JOINT Spine1
		{
			OFFSET 0.000000 13.840401 0.053500
			CHANNELS 3 Xrotation Yrotation Zrotation
			JOINT Spine2
			{
				OFFSET 0.000000 14.712700 -0.366200
				CHANNELS 3 Xrotation Yrotation Zrotation
				JOINT Neck
				{
					OFFSET 0.000000 35.415497 -3.314200
					CHANNELS 3 Xrotation Yrotation Zrotation
					JOINT Head
					{
						OFFSET 0.000000 16.899200 1.218300
						CHANNELS 3 Xrotation Yrotation Zrotation
						JOINT HeadTop_End
						{
							OFFSET 0.000000 22.206207 2.192500
							CHANNELS 3 Xrotation Yrotation Zrotation
							End Site
							{
								OFFSET 0.000000 22.314178 0.000000
							}
						}
					}
				}
				JOINT LeftShoulder
				{
					OFFSET 12.896400 26.716293 -4.548400
					CHANNELS 3 Xrotation Yrotation Zrotation
					JOINT LeftArm
					{
						OFFSET 19.027000 -4.857010 -1.718400
						CHANNELS 3 Xrotation Yrotation Zrotation
						JOINT LeftForeArm
						{
							OFFSET 24.179897 0.000000 0.000000
							CHANNELS 3 Xrotation Yrotation Zrotation
							JOINT LeftHand
							{
								OFFSET 27.156403 0.000000 0.000000
								CHANNELS 3 Xrotation Yrotation Zrotation
								JOINT LeftHandIndex1
								{
									OFFSET 16.441200 0.000000 0.000000
									CHANNELS 3 Xrotation Yrotation Zrotation
									JOINT LeftHandIndex2
									{
										OFFSET 4.821899 0.000000 0.000000
										CHANNELS 3 Xrotation Yrotation Zrotation
										JOINT LeftHandIndex3
										{
											OFFSET 6.386497 0.000000 0.000000
											CHANNELS 3 Xrotation Yrotation Zrotation
											JOINT LeftHandIndex4
											{
												OFFSET 5.188988 0.000000 0.000000
												CHANNELS 3 Xrotation Yrotation Zrotation
												End Site
												{
													OFFSET -0.178703 5.185913 0.000177
												}
											}
										}
									}
								}
								JOINT LeftHandThumb1
								{
									OFFSET 6.534897 -5.032593 5.900300
									CHANNELS 3 Xrotation Yrotation Zrotation
									JOINT LeftHandThumb2
									{
										OFFSET 3.818176 -2.204422 2.204423
										CHANNELS 3 Xrotation Yrotation Zrotation
										JOINT LeftHandThumb3
										{
											OFFSET 3.252098 -1.877594 1.877601
											CHANNELS 3 Xrotation Yrotation Zrotation
											JOINT LeftHandThumb4
											{
												OFFSET 5.251778 -3.032120 3.032117
												CHANNELS 3 Xrotation Yrotation Zrotation
												End Site
												{
													OFFSET 0.000023 6.780014 0.000000
												}
											}
										}
									}
								}
							}
						}
					}
				}
				JOINT RightShoulder
				{
					OFFSET -12.896300 26.716293 -4.548400
					CHANNELS 3 Xrotation Yrotation Zrotation
					JOINT RightArm
					{
						OFFSET -19.027000 -4.857010 -1.718400
						CHANNELS 3 Xrotation Yrotation Zrotation
						JOINT RightForeArm
						{
							OFFSET -24.179897 0.000000 0.000000
							CHANNELS 3 Xrotation Yrotation Zrotation
							JOINT RightHand
							{
								OFFSET -27.156403 0.000000 0.000000
								CHANNELS 3 Xrotation Yrotation Zrotation
								JOINT RightHandThumb1
								{
									OFFSET -6.591202 -4.852203 5.988100
									CHANNELS 3 Xrotation Yrotation Zrotation
									JOINT RightHandThumb2
									{
										OFFSET -3.818176 -2.204422 2.204423
										CHANNELS 3 Xrotation Yrotation Zrotation
										JOINT RightHandThumb3
										{
											OFFSET -3.252098 -1.877594 1.877601
											CHANNELS 3 Xrotation Yrotation Zrotation
											JOINT RightHandThumb4
											{
												OFFSET -5.251778 -3.032120 3.032117
												CHANNELS 3 Xrotation Yrotation Zrotation
												End Site
												{
													OFFSET -0.000023 6.780014 0.000000
												}
											}
										}
									}
								}
								JOINT RightHandIndex1
								{
									OFFSET -16.029404 0.000000 0.000000
									CHANNELS 3 Xrotation Yrotation Zrotation
									JOINT RightHandIndex2
									{
										OFFSET -5.213303 0.000000 0.000000
										CHANNELS 3 Xrotation Yrotation Zrotation
										JOINT RightHandIndex3
										{
											OFFSET -6.386528 0.000000 0.000000
											CHANNELS 3 Xrotation Yrotation Zrotation
											JOINT RightHandIndex4
											{
												OFFSET -5.189026 0.000000 0.000000
												CHANNELS 3 Xrotation Yrotation Zrotation
												End Site
												{
													OFFSET 0.236702 5.183624 0.001972
												}
											}
										}
									}
								}
							}
						}
					}
				}
			}
		}
	}
	JOINT LeftUpLeg
	{
		OFFSET 14.073000 -7.904099 -1.463000
		CHANNELS 3 Xrotation Yrotation Zrotation
		JOINT LeftLeg
		{
			OFFSET -0.109806 -34.073280 4.093200
			CHANNELS 3 Xrotation Yrotation Zrotation
			JOINT LeftFoot
			{
				OFFSET 0.109806 -29.899420 -6.319000
				CHANNELS 3 Xrotation Yrotation Zrotation
				JOINT LeftToeBase
				{
					OFFSET 1.551100 -14.988700 20.535801
					CHANNELS 3 Xrotation Yrotation Zrotation
					JOINT LeftToe_End
					{
						OFFSET 0.221200 0.570800 13.248301
						CHANNELS 3 Xrotation Yrotation Zrotation
						End Site
						{
							OFFSET 0.000000 13.262435 0.000000
						}
					}
				}
			}
		}
	}
	JOINT RightUpLeg
	{
		OFFSET -13.839300 -7.904099 -1.463000
		CHANNELS 3 Xrotation Yrotation Zrotation
		JOINT RightLeg
		{
			OFFSET 0.109694 -34.073219 4.093300
			CHANNELS 3 Xrotation Yrotation Zrotation
			JOINT RightFoot
			{
				OFFSET -0.109694 -29.899384 -6.319200
				CHANNELS 3 Xrotation Yrotation Zrotation
				JOINT RightToeBase
				{
					OFFSET -1.551100 -14.988700 20.535801
					CHANNELS 3 Xrotation Yrotation Zrotation
					JOINT RightToe_End
					{
						OFFSET -0.221200 0.570900 13.248299
						CHANNELS 3 Xrotation Yrotation Zrotation
						End Site
						{
							OFFSET 0.000000 13.262440 0.000000
						}
					}
				}
			}
		}
	}
}
MOTION
Frames: 8
Frame Time: 0.033333
-7.485703 56.736916 6.988428 3.461915 -5.829368 5.368598 4.455518 1.208575 -0.883684 19.192900 -0.625385 -3.695768 19.279978 0.101441 -3.527535 -21.718484 -0.072405 8.880172 5.530284 6.162875 -11.158580 0.000002 -0.000001 0.000000 -6.850316 -11.844199 -5.851381 -40.036786 14.209102 -54.148107 -92.590099 -19.052306 -64.506711 -12.675353 4.260830 22.624845 11.924105 -0.431317 6.108327 -0.361588 0.132771 -67.261859 -0.173324 0.117363 -58.771169 0.000001 0.000004 -0.000002 -9.662348 -14.989863 -0.537940 10.490937 42.903430 4.051780 6.657415 41.236263 17.901928 -0.000000 0.000001 0.000001 -8.633959 18.195784 14.636885 -34.404363 -21.426824 48.274616 -86.289605 1.678235 76.444263 -15.147056 8.311667 -4.906736 -8.128009 7.619168 -3.252160 12.275568 -51.933128 -7.380335 5.855694 -48.533805 -22.219369 -0.000004 -0.000001 0.000002 11.012592 0.695208 7.754662 -0.195042 0.023576 78.082887 -0.066604 -0.034712 70.164074 -0.000002 -0.000004 0.000000 -76.098696 -7.885527 10.831432 74.966927 -35.640716 -21.234973 -8.329627 -5.736516 8.072231 -0.329219 1.236652 0.818509 -0.000000 0.000001 -0.000000 1.085858 -4.068526 -25.815767 90.867484 -6.694357 -6.820661 -59.389403 -17.214641 28.311872 -35.941852 -6.458699 9.565994 -0.000000 -0.000003 -0.000001 
-7.804571 59.421471 7.909125 1.861799 -3.916705 4.427935 4.858747 1.075592 -1.050447 15.425630 -0.559691 -3.594321 15.504330 0.035387 -3.462894 -26.645724 -0.576584 7.933371 -4.852499 7.616288 -8.478981 -0.000000 0.000000 -0.000000 -7.350168 -12.564724 -5.219307 -39.813729 13.980958 -44.121745 -90.312730 -7.025855 -67.974965 -12.392075 5.612223 18.920228 11.343728 -0.662105 4.749474 -0.350998 0.132392 -66.277615 -0.175141 0.117271 -57.082193 0.000001 0.000002 0.000000 -8.857301 -13.779360 0.399258 10.281947 41.861594 3.342194 6.682974 39.942601 17.274354 -0.000003 0.000002 -0.000000 -9.289502 19.007588 14.094206 -29.803240 -23.520135 46.166420 -87.585831 -1.338238 76.998635 -11.912837 13.253413 -6.151495 -7.641253 6.867969 -3.936956 11.627723 -49.751398 -6.852897 6.137544 -45.576630 -20.796189 0.000001 -0.000001 0.000000 11.133378 2.146559 6.886226 -0.160010 0.025686 75.436987 -0.047358 -0.035219 67.806928 0.000000 -0.000000 0.000001 -70.811583 -7.603431 9.026303 71.725579 -35.536566 -19.813021 -8.636079 -5.525142 8.121036 -0.329265 1.236608 0.819582 0.000000 -0.000004 0.000000 4.831342 -7.607155 -22.211241 82.214652 -8.503945 -8.016459 -55.799490 -16.118353 28.645371 -34.898182 -5.193574 8.171167 -0.000000 0.000000 -0.000000 
-7.957645 62.570930 8.947216 -0.024637 -2.644766 3.137124 5.608198 1.024316 -1.070789 11.076686 -0.084715 -3.149900 11.142066 0.341114 -3.065269 -31.904743 -2.825924 6.418483 -15.042208 7.613456 -6.339557 -0.000001 0.000000 -0.000000 -7.392985 -14.806173 -2.871889 -40.110890 15.968837 -33.908341 -89.697507 -3.357370 -77.918060 -10.148716 5.702577 17.287627 9.830592 -3.747633 5.057403 -0.320619 0.161559 -62.130918 -0.203566 0.140979 -52.482443 -0.000000 0.000001 -0.000001 -8.431404 -12.249264 3.179995 9.076092 37.739268 1.924590 6.550520 35.853657 15.754468 -0.000004 0.000001 0.000002 -9.455318 20.095663 12.297007 -19.693686 -23.605240 44.221766 -95.042396 -12.371829 85.978210 -5.622975 20.520940 -9.811848 -7.060471 6.162174 -4.664219 10.474440 -45.736268 -5.801829 6.379328 -40.226256 -18.345685 0.000001 -0.000002 0.000002 11.549502 4.615099 4.675144 -0.115669 0.009615 70.338101 -0.026468 -0.045595 63.328032 -0.000001 -0.000002 -0.000000 -64.363249 -7.496211 7.859179 68.118849 -35.275714 -17.999012 -9.040016 -5.357540 8.143595 -0.329315 1.236500 0.820842 -0.000000 0.000001 -0.000000 8.760220 -10.395655 -19.068816 73.048334 -9.069457 -8.891608 -50.307994 -14.220433 28.899709 -35.034984 -4.226486 6.862443 0.000000 0.000002 0.000000 
-7.985476 66.118423 10.113432 -0.646293 -3.297405 2.095909 5.818972 1.090481 -1.153960 6.228861 0.650416 -2.862455 6.284132 0.922716 -2.819133 -34.910599 -5.401061 5.565198 -21.879879 6.599808 -4.608763 0.000003 0.000000 -0.000000 -7.082893 -17.422206 -0.353836 -46.545523 15.463647 -21.713279 -90.448049 0.023308 -86.805632 -6.399070 5.201854 16.682244 7.759613 -10.299123 6.950936 -0.284587 0.230407 -53.861557 -0.272036 0.174525 -44.171393 0.000001 0.000001 -0.000000 -8.436563 -10.396076 8.135815 6.625017 30.111569 -0.365862 5.929893 28.342476 13.228331 -0.000001 0.000000 0.000004 -9.677703 21.847139 11.474339 -11.576356 -26.874884 37.580599 -93.370892 -38.119658 106.160128 16.742486 16.589529 -5.558514 -6.234951 5.412098 -5.500856 8.578416 -39.249197 -3.992565 6.169070 -31.752088 -14.788551 -0.000000 0.000003 0.000002 12.676723 8.450658 0.705220 -0.068079 -0.035788 62.048116 -0.007188 -0.070502 56.157047 -0.000003 -0.000001 0.000002 -57.832830 -6.469676 8.476430 63.333175 -34.912847 -16.539499 -9.327708 -5.189740 8.312923 -0.329329 1.236309 0.822299 -0.000000 0.000003 -0.000000 10.920601 -11.921076 -16.836608 63.494156 -9.454887 -10.143925 -43.692426 -12.031908 29.255039 -34.928904 -3.639815 6.138375 0.000000 -0.000003 -0.000001 
-7.922572 69.851097 11.167160 -0.706321 -6.123671 1.151264 5.768639 1.145636 -0.990491 2.946350 1.310496 -2.243806 2.993361 1.488463 -2.223693 -37.517389 -5.966570 4.532922 -22.578879 5.514459 -2.769877 -0.000001 0.000000 0.000000 -5.605180 -18.151984 6.231635 -57.584867 9.417765 -11.217910 -91.630307 3.142817 -87.593017 -6.525968 4.090580 16.639089 6.428955 -18.053138 9.320890 -0.274782 0.312911 -43.202214 -0.363754 0.176835 -33.981991 -0.000002 -0.000001 0.000001 -8.504836 -8.534679 13.607077 3.419817 21.113139 -3.184503 4.576675 18.775652 9.991318 -0.000001 0.000000 0.000000 -9.675524 24.678781 10.537246 -23.761492 -29.264690 14.750704 -84.483621 -38.330315 113.623906 11.318277 17.943266 1.934495 -5.172387 4.591023 -6.438849 5.903860 -30.626070 -1.391923 5.028458 -20.582316 -10.368412 0.000005 -0.000001 0.000000 15.046955 13.269903 -5.059832 -0.038692 -0.109679 50.918247 0.001417 -0.110487 46.571450 0.000003 0.000001 -0.000004 -50.912356 -5.973243 9.563977 58.098825 -32.474992 -14.642585 -10.378888 -4.930877 7.042704 -0.329384 1.235941 0.823989 -0.000000 0.000001 -0.000000 11.573102 -12.120811 -15.598875 54.415622 -9.071618 -11.756241 -36.313896 -9.563611 29.473509 -35.321821 -3.283272 5.668230 0.000000 0.000001 0.000001 
-7.774267 73.013000 11.932728 -0.426285 -9.871737 0.288935 5.976992 1.171187 -0.595340 1.216903 1.780809 -1.232566 1.256133 1.892683 -1.225300 -38.169921 -5.238113 4.509179 -22.754393 5.721814 -1.660165 -0.000001 -0.000000 -0.000001 -3.226459 -12.847523 20.546239 -70.578073 8.079226 -6.816382 -92.103632 -2.147383 -85.622999 -6.814333 2.236904 16.148041 6.620916 -22.885413 11.543044 -0.280842 0.357600 -33.327549 -0.409472 0.152669 -25.200466 0.000000 0.000001 -0.000001 -8.206032 -7.047176 16.699387 0.474253 13.898657 -5.725636 2.627467 9.208893 6.286247 -0.000002 -0.000003 0.000000 -8.756578 26.978289 0.303743 -44.613621 -20.495943 -4.003325 -80.342682 -4.791459 100.358073 -14.434816 34.334401 -0.040060 -4.199529 3.836697 -7.464482 2.740351 -21.355170 1.708066 2.822718 -8.467999 -5.468341 0.000002 0.000002 0.000001 18.765281 17.804003 -12.203208 -0.044739 -0.189458 38.504457 -0.005395 -0.150988 35.666493 -0.000001 -0.000000 -0.000000 -45.010851 -5.817088 10.677292 53.265548 -29.000194 -12.770806 -11.346978 -4.558494 5.021789 -0.431877 1.234010 0.829764 -0.000000 0.000002 -0.000000 11.009845 -11.704301 -15.152098 47.342766 -8.104027 -12.914505 -29.482150 -7.343594 29.666216 -36.134699 -3.027505 5.297915 -0.000001 -0.000000 -0.000000 
-7.597833 75.671135 12.648440 0.139165 -13.860945 0.105450 6.244104 1.467417 -0.273556 0.250308 2.638364 -0.435450 0.283508 2.701643 -0.434794 -37.377568 -4.451561 4.408813 -22.916779 6.159486 -1.318163 -0.000004 -0.000000 -0.000000 -4.021470 -6.009084 29.558514 -81.808748 2.831595 -4.258922 -95.701339 -14.275891 -76.997303 -7.626846 0.089155 15.530161 8.120895 -22.447531 13.597836 -0.258819 0.346099 -25.963456 -0.371654 0.139741 -19.650768 0.000000 0.000001 -0.000000 -7.338160 -6.046258 15.849483 -1.523132 9.809392 -7.403885 0.248461 0.404124 2.063465 -0.000001 0.000000 0.000001 -11.861258 26.545943 -9.080346 -60.778192 -8.934494 -10.595438 -73.773672 14.638207 90.418311 -8.339126 33.948827 -13.039347 -3.832775 3.439686 -8.543072 -0.255219 -13.521302 4.652809 -0.027799 2.229523 -0.659761 0.000001 -0.000001 -0.000001 22.909581 20.509451 -19.692308 -0.072617 -0.245813 26.904764 -0.017042 -0.175593 24.766551 0.000002 -0.000000 0.000002 -39.762810 -5.722666 10.944337 48.639317 -24.516389 -10.889100 -12.140611 -4.019058 2.633650 -0.947884 1.225819 0.842984 -0.000000 -0.000001 -0.000000 8.554769 -11.942258 -16.581169 43.001280 -6.792750 -13.438366 -22.023602 -5.268519 30.660849 -36.809573 -2.952666 5.203420 -0.000000 -0.000001 0.000000 
-7.575300 78.714264 13.575811 0.592888 -17.230395 -0.473988 6.271899 2.000915 0.270070 -0.675992 3.877933 0.879149 -0.647977 3.908058 0.877685 -36.559926 -4.191159 5.084622 -21.373989 7.614560 -3.486309 -0.000002 -0.000000 0.000000 -7.002115 -0.046182 33.262506 -81.202452 -6.175373 -4.959964 -100.800881 -13.469687 -60.841515 -8.760077 -2.329034 14.463525 10.280649 -18.061991 15.124211 -0.199573 0.301736 -20.555306 -0.272736 0.152022 -16.580207 0.000000 -0.000002 -0.000001 -5.980313 -5.393967 12.097072 -2.702694 7.965992 -8.321808 -2.583246 -7.746322 -2.698438 0.000000 -0.000001 0.000000 -18.117780 24.534924 -18.265545 -71.587076 -2.572600 -10.478088 -70.187167 18.941236 80.288375 -8.182398 29.975183 -12.564322 -4.207166 3.601905 -9.303898 -2.285469 -8.720132 6.652138 -2.660476 9.759230 3.251595 -0.000000 0.000001 -0.000000 25.850989 20.782177 -25.876108 -0.087953 -0.269753 17.779809 -0.015757 -0.181232 14.987756 0.000002 -0.000002 0.000004 -34.190315 -4.822092 11.410248 42.338779 -21.699166 -9.207980 -11.174237 -3.355011 1.554602 -1.704784 1.213822 0.861579 -0.000000 -0.000000 -0.000000 6.484897 -12.564807 -17.379773 37.765537 -5.730834 -13.714620 -11.949070 -2.254185 31.507775 -38.121891 -2.971796 5.172024 -0.000001 -0.000001 -0.000000 
